ISO-10303-21;
HEADER;
FILE_DESCRIPTION((''),'2;1');
FILE_NAME('C-63952-1','2014-01-27T',('workeradm'),('Tyco Electronics Ltd.'),
'PRO/ENGINEER BY PARAMETRIC TECHNOLOGY CORPORATION, 2013050',
'PRO/ENGINEER BY PARAMETRIC TECHNOLOGY CORPORATION, 2013050','');
FILE_SCHEMA(('AUTOMOTIVE_DESIGN { 1 0 10303 214 1 1 1 1 }'));
ENDSEC;
DATA;
#134=CARTESIAN_POINT('',(0.E0,0.E0,-4.5212E0));
#135=DIRECTION('',(1.E0,0.E0,0.E0));
#136=DIRECTION('',(0.E0,1.E0,0.E0));
#137=AXIS2_PLACEMENT_3D('',#134,#135,#136);
#139=CARTESIAN_POINT('',(0.E0,0.E0,-4.5212E0));
#140=DIRECTION('',(1.E0,0.E0,0.E0));
#141=DIRECTION('',(0.E0,-1.E0,0.E0));
#142=AXIS2_PLACEMENT_3D('',#139,#140,#141);
#144=CARTESIAN_POINT('',(0.E0,-7.9375E0,-1.861899056972E1));
#145=DIRECTION('',(1.E0,0.E0,0.E0));
#146=DIRECTION('',(0.E0,-1.022392060602E-1,9.947598427481E-1));
#147=AXIS2_PLACEMENT_3D('',#144,#145,#146);
#149=DIRECTION('',(0.E0,9.947598427481E-1,1.022392060602E-1));
#150=VECTOR('',#149,1.995228421474E0);
#151=CARTESIAN_POINT('',(0.E0,-7.969960947924E0,-1.830315431965E1));
#152=LINE('',#151,#150);
#153=CARTESIAN_POINT('',(0.E0,-5.952726889208E0,-1.8415E1));
#154=DIRECTION('',(1.E0,0.E0,0.E0));
#155=DIRECTION('',(0.E0,5.315083456473E-14,1.E0));
#156=AXIS2_PLACEMENT_3D('',#153,#154,#155);
#158=DIRECTION('',(0.E0,1.E0,0.E0));
#159=VECTOR('',#158,1.507726889208E0);
#160=CARTESIAN_POINT('',(0.E0,-5.952726889208E0,-1.80975E1));
#161=LINE('',#160,#159);
#162=DIRECTION('',(0.E0,0.E0,1.E0));
#163=VECTOR('',#162,1.27E0);
#164=CARTESIAN_POINT('',(0.E0,-4.445E0,-1.80975E1));
#165=LINE('',#164,#163);
#166=DIRECTION('',(0.E0,1.E0,0.E0));
#167=VECTOR('',#166,1.27E0);
#168=CARTESIAN_POINT('',(0.E0,-4.445E0,-1.68275E1));
#169=LINE('',#168,#167);
#170=DIRECTION('',(0.E0,0.E0,1.E0));
#171=VECTOR('',#170,1.58115E1);
#172=CARTESIAN_POINT('',(0.E0,-3.175E0,-1.68275E1));
#173=LINE('',#172,#171);
#174=DIRECTION('',(0.E0,7.071067811866E-1,7.071067811865E-1));
#175=VECTOR('',#174,3.232892203585E-1);
#176=CARTESIAN_POINT('',(0.E0,-3.175E0,-1.016E0));
#177=LINE('',#176,#175);
#178=DIRECTION('',(0.E0,-1.E0,0.E0));
#179=VECTOR('',#178,5.8928E0);
#180=CARTESIAN_POINT('',(0.E0,2.9464E0,-7.874E-1));
#181=LINE('',#180,#179);
#182=DIRECTION('',(0.E0,7.071067811866E-1,-7.071067811865E-1));
#183=VECTOR('',#182,3.232892203585E-1);
#184=CARTESIAN_POINT('',(0.E0,2.9464E0,-7.874E-1));
#185=LINE('',#184,#183);
#186=DIRECTION('',(0.E0,0.E0,-1.E0));
#187=VECTOR('',#186,2.3368E1);
#188=CARTESIAN_POINT('',(0.E0,3.175E0,-1.016E0));
#189=LINE('',#188,#187);
#190=DIRECTION('',(0.E0,-7.071067811866E-1,-7.071067811865E-1));
#191=VECTOR('',#190,1.436840979371E0);
#192=CARTESIAN_POINT('',(0.E0,3.175E0,-2.4384E1));
#193=LINE('',#192,#191);
#194=DIRECTION('',(0.E0,-1.E0,0.E0));
#195=VECTOR('',#194,4.318E0);
#196=CARTESIAN_POINT('',(0.E0,2.159E0,-2.54E1));
#197=LINE('',#196,#195);
#198=DIRECTION('',(0.E0,-7.071067811865E-1,7.071067811865E-1));
#199=VECTOR('',#198,1.436840979371E0);
#200=CARTESIAN_POINT('',(0.E0,-2.159E0,-2.54E1));
#201=LINE('',#200,#199);
#202=DIRECTION('',(0.E0,-1.E0,0.E0));
#203=VECTOR('',#202,2.777726889208E0);
#204=CARTESIAN_POINT('',(0.E0,-3.175E0,-2.4384E1));
#205=LINE('',#204,#203);
#206=CARTESIAN_POINT('',(0.E0,-5.952726889208E0,-2.40665E1));
#207=DIRECTION('',(1.E0,0.E0,0.E0));
#208=DIRECTION('',(0.E0,-1.022392060598E-1,-9.947598427481E-1));
#209=AXIS2_PLACEMENT_3D('',#206,#207,#208);
#211=DIRECTION('',(0.E0,-9.947598427481E-1,1.022392060602E-1));
#212=VECTOR('',#211,1.995228421474E0);
#213=CARTESIAN_POINT('',(0.E0,-5.985187837132E0,-2.438233625007E1));
#214=LINE('',#213,#212);
#215=CARTESIAN_POINT('',(0.E0,-7.9375E0,-2.386250943028E1));
#216=DIRECTION('',(1.E0,0.E0,0.E0));
#217=DIRECTION('',(0.E0,-1.E0,0.E0));
#218=AXIS2_PLACEMENT_3D('',#215,#216,#217);
#220=DIRECTION('',(0.E0,0.E0,1.E0));
#221=VECTOR('',#220,1.635188605595E-1);
#222=CARTESIAN_POINT('',(0.E0,-8.255E0,-2.386250943028E1));
#223=LINE('',#222,#221);
#224=CARTESIAN_POINT('',(0.E0,-7.9375E0,-2.369899056972E1));
#225=DIRECTION('',(1.E0,0.E0,0.E0));
#226=DIRECTION('',(0.E0,-1.022392060602E-1,9.947598427481E-1));
#227=AXIS2_PLACEMENT_3D('',#224,#225,#226);
#229=DIRECTION('',(0.E0,9.947598427481E-1,1.022392060602E-1));
#230=VECTOR('',#229,1.995228421474E0);
#231=CARTESIAN_POINT('',(0.E0,-7.969960947924E0,-2.338315431965E1));
#232=LINE('',#231,#230);
#233=CARTESIAN_POINT('',(0.E0,-5.952726889208E0,-2.3495E1));
#234=DIRECTION('',(1.E0,0.E0,0.E0));
#235=DIRECTION('',(0.E0,5.594824691024E-14,1.E0));
#236=AXIS2_PLACEMENT_3D('',#233,#234,#235);
#238=DIRECTION('',(0.E0,1.E0,0.E0));
#239=VECTOR('',#238,1.507726889208E0);
#240=CARTESIAN_POINT('',(0.E0,-5.952726889208E0,-2.31775E1));
#241=LINE('',#240,#239);
#242=DIRECTION('',(0.E0,0.E0,1.E0));
#243=VECTOR('',#242,3.8735E0);
#244=CARTESIAN_POINT('',(0.E0,-4.445E0,-2.31775E1));
#245=LINE('',#244,#243);
#246=DIRECTION('',(0.E0,-1.E0,0.E0));
#247=VECTOR('',#246,1.507726889208E0);
#248=CARTESIAN_POINT('',(0.E0,-4.445E0,-1.9304E1));
#249=LINE('',#248,#247);
#250=CARTESIAN_POINT('',(0.E0,-5.952726889208E0,-1.89865E1));
#251=DIRECTION('',(1.E0,0.E0,0.E0));
#252=DIRECTION('',(0.E0,-1.022392060598E-1,-9.947598427481E-1));
#253=AXIS2_PLACEMENT_3D('',#250,#251,#252);
#255=DIRECTION('',(0.E0,-9.947598427481E-1,1.022392060602E-1));
#256=VECTOR('',#255,1.995228421474E0);
#257=CARTESIAN_POINT('',(0.E0,-5.985187837132E0,-1.930233625007E1));
#258=LINE('',#257,#256);
#259=CARTESIAN_POINT('',(0.E0,-7.9375E0,-1.878250943028E1));
#260=DIRECTION('',(1.E0,0.E0,0.E0));
#261=DIRECTION('',(0.E0,-1.E0,0.E0));
#262=AXIS2_PLACEMENT_3D('',#259,#260,#261);
#264=DIRECTION('',(0.E0,0.E0,1.E0));
#265=VECTOR('',#264,1.635188605595E-1);
#266=CARTESIAN_POINT('',(0.E0,-8.255E0,-1.878250943028E1));
#267=LINE('',#266,#265);
#268=DIRECTION('',(-1.E0,0.E0,0.E0));
#269=VECTOR('',#268,8.001E-1);
#270=CARTESIAN_POINT('',(0.E0,8.89E-1,-4.5212E0));
#271=LINE('',#270,#269);
#272=DIRECTION('',(-1.E0,0.E0,0.E0));
#273=VECTOR('',#272,8.001E-1);
#274=CARTESIAN_POINT('',(0.E0,-8.89E-1,-4.5212E0));
#275=LINE('',#274,#273);
#276=CARTESIAN_POINT('',(-8.001E-1,0.E0,-4.5212E0));
#277=DIRECTION('',(1.E0,0.E0,0.E0));
#278=DIRECTION('',(0.E0,1.E0,0.E0));
#279=AXIS2_PLACEMENT_3D('',#276,#277,#278);
#281=CARTESIAN_POINT('',(-8.001E-1,0.E0,-4.5212E0));
#282=DIRECTION('',(1.E0,0.E0,0.E0));
#283=DIRECTION('',(0.E0,-1.E0,0.E0));
#284=AXIS2_PLACEMENT_3D('',#281,#282,#283);
#286=CARTESIAN_POINT('',(-8.001E-1,-7.9375E0,-1.861899056972E1));
#287=DIRECTION('',(-1.E0,0.E0,0.E0));
#288=DIRECTION('',(0.E0,-1.E0,0.E0));
#289=AXIS2_PLACEMENT_3D('',#286,#287,#288);
#291=DIRECTION('',(0.E0,0.E0,1.E0));
#292=VECTOR('',#291,1.635188605595E-1);
#293=CARTESIAN_POINT('',(-8.001E-1,-8.255E0,-1.878250943028E1));
#294=LINE('',#293,#292);
#295=CARTESIAN_POINT('',(-8.001E-1,-7.9375E0,-1.878250943028E1));
#296=DIRECTION('',(-1.E0,0.E0,0.E0));
#297=DIRECTION('',(0.E0,-1.022392060602E-1,-9.947598427481E-1));
#298=AXIS2_PLACEMENT_3D('',#295,#296,#297);
#300=DIRECTION('',(0.E0,-9.947598427481E-1,1.022392060602E-1));
#301=VECTOR('',#300,1.995228421474E0);
#302=CARTESIAN_POINT('',(-8.001E-1,-5.985187837132E0,-1.930233625007E1));
#303=LINE('',#302,#301);
#304=CARTESIAN_POINT('',(-8.001E-1,-5.952726889208E0,-1.89865E1));
#305=DIRECTION('',(-1.E0,0.E0,0.E0));
#306=DIRECTION('',(0.E0,5.874565925576E-14,-1.E0));
#307=AXIS2_PLACEMENT_3D('',#304,#305,#306);
#309=DIRECTION('',(0.E0,-1.E0,0.E0));
#310=VECTOR('',#309,1.507726889208E0);
#311=CARTESIAN_POINT('',(-8.001E-1,-4.445E0,-1.9304E1));
#312=LINE('',#311,#310);
#313=DIRECTION('',(0.E0,0.E0,1.E0));
#314=VECTOR('',#313,3.8735E0);
#315=CARTESIAN_POINT('',(-8.001E-1,-4.445E0,-2.31775E1));
#316=LINE('',#315,#314);
#317=DIRECTION('',(0.E0,1.E0,0.E0));
#318=VECTOR('',#317,1.507726889208E0);
#319=CARTESIAN_POINT('',(-8.001E-1,-5.952726889208E0,-2.31775E1));
#320=LINE('',#319,#318);
#321=CARTESIAN_POINT('',(-8.001E-1,-5.952726889208E0,-2.3495E1));
#322=DIRECTION('',(-1.E0,0.E0,0.E0));
#323=DIRECTION('',(0.E0,-1.022392060598E-1,9.947598427481E-1));
#324=AXIS2_PLACEMENT_3D('',#321,#322,#323);
#326=DIRECTION('',(0.E0,9.947598427481E-1,1.022392060602E-1));
#327=VECTOR('',#326,1.995228421474E0);
#328=CARTESIAN_POINT('',(-8.001E-1,-7.969960947924E0,-2.338315431965E1));
#329=LINE('',#328,#327);
#330=CARTESIAN_POINT('',(-8.001E-1,-7.9375E0,-2.369899056972E1));
#331=DIRECTION('',(-1.E0,0.E0,0.E0));
#332=DIRECTION('',(0.E0,-1.E0,0.E0));
#333=AXIS2_PLACEMENT_3D('',#330,#331,#332);
#335=DIRECTION('',(0.E0,0.E0,1.E0));
#336=VECTOR('',#335,1.635188605595E-1);
#337=CARTESIAN_POINT('',(-8.001E-1,-8.255E0,-2.386250943028E1));
#338=LINE('',#337,#336);
#339=CARTESIAN_POINT('',(-8.001E-1,-7.9375E0,-2.386250943028E1));
#340=DIRECTION('',(-1.E0,0.E0,0.E0));
#341=DIRECTION('',(0.E0,-1.022392060602E-1,-9.947598427481E-1));
#342=AXIS2_PLACEMENT_3D('',#339,#340,#341);
#344=DIRECTION('',(0.E0,-9.947598427481E-1,1.022392060602E-1));
#345=VECTOR('',#344,1.995228421474E0);
#346=CARTESIAN_POINT('',(-8.001E-1,-5.985187837132E0,-2.438233625007E1));
#347=LINE('',#346,#345);
#348=CARTESIAN_POINT('',(-8.001E-1,-5.952726889208E0,-2.40665E1));
#349=DIRECTION('',(-1.E0,0.E0,0.E0));
#350=DIRECTION('',(0.E0,5.594824691024E-14,-1.E0));
#351=AXIS2_PLACEMENT_3D('',#348,#349,#350);
#353=DIRECTION('',(0.E0,-1.E0,0.E0));
#354=VECTOR('',#353,2.777726889208E0);
#355=CARTESIAN_POINT('',(-8.001E-1,-3.175E0,-2.4384E1));
#356=LINE('',#355,#354);
#357=DIRECTION('',(0.E0,-7.071067811865E-1,7.071067811865E-1));
#358=VECTOR('',#357,1.436840979371E0);
#359=CARTESIAN_POINT('',(-8.001E-1,-2.159E0,-2.54E1));
#360=LINE('',#359,#358);
#361=DIRECTION('',(0.E0,-1.E0,0.E0));
#362=VECTOR('',#361,4.318E0);
#363=CARTESIAN_POINT('',(-8.001E-1,2.159E0,-2.54E1));
#364=LINE('',#363,#362);
#365=DIRECTION('',(0.E0,-7.071067811866E-1,-7.071067811865E-1));
#366=VECTOR('',#365,1.436840979371E0);
#367=CARTESIAN_POINT('',(-8.001E-1,3.175E0,-2.4384E1));
#368=LINE('',#367,#366);
#369=DIRECTION('',(0.E0,0.E0,-1.E0));
#370=VECTOR('',#369,2.3368E1);
#371=CARTESIAN_POINT('',(-8.001E-1,3.175E0,-1.016E0));
#372=LINE('',#371,#370);
#373=DIRECTION('',(0.E0,7.071067811866E-1,-7.071067811865E-1));
#374=VECTOR('',#373,3.232892203585E-1);
#375=CARTESIAN_POINT('',(-8.001E-1,2.9464E0,-7.874E-1));
#376=LINE('',#375,#374);
#377=DIRECTION('',(0.E0,-1.E0,0.E0));
#378=VECTOR('',#377,5.8928E0);
#379=CARTESIAN_POINT('',(-8.001E-1,2.9464E0,-7.874E-1));
#380=LINE('',#379,#378);
#381=DIRECTION('',(0.E0,7.071067811866E-1,7.071067811865E-1));
#382=VECTOR('',#381,3.232892203585E-1);
#383=CARTESIAN_POINT('',(-8.001E-1,-3.175E0,-1.016E0));
#384=LINE('',#383,#382);
#385=DIRECTION('',(0.E0,0.E0,1.E0));
#386=VECTOR('',#385,1.58115E1);
#387=CARTESIAN_POINT('',(-8.001E-1,-3.175E0,-1.68275E1));
#388=LINE('',#387,#386);
#389=DIRECTION('',(0.E0,1.E0,0.E0));
#390=VECTOR('',#389,1.27E0);
#391=CARTESIAN_POINT('',(-8.001E-1,-4.445E0,-1.68275E1));
#392=LINE('',#391,#390);
#393=DIRECTION('',(0.E0,0.E0,1.E0));
#394=VECTOR('',#393,1.27E0);
#395=CARTESIAN_POINT('',(-8.001E-1,-4.445E0,-1.80975E1));
#396=LINE('',#395,#394);
#397=DIRECTION('',(0.E0,1.E0,0.E0));
#398=VECTOR('',#397,1.507726889208E0);
#399=CARTESIAN_POINT('',(-8.001E-1,-5.952726889208E0,-1.80975E1));
#400=LINE('',#399,#398);
#401=CARTESIAN_POINT('',(-8.001E-1,-5.952726889208E0,-1.8415E1));
#402=DIRECTION('',(-1.E0,0.E0,0.E0));
#403=DIRECTION('',(0.E0,-1.022392060599E-1,9.947598427481E-1));
#404=AXIS2_PLACEMENT_3D('',#401,#402,#403);
#406=DIRECTION('',(0.E0,9.947598427481E-1,1.022392060602E-1));
#407=VECTOR('',#406,1.995228421474E0);
#408=CARTESIAN_POINT('',(-8.001E-1,-7.969960947924E0,-1.830315431965E1));
#409=LINE('',#408,#407);
#410=DIRECTION('',(1.E0,0.E0,0.E0));
#411=VECTOR('',#410,8.001E-1);
#412=CARTESIAN_POINT('',(-8.001E-1,-8.255E0,-1.861899056972E1));
#413=LINE('',#412,#411);
#414=DIRECTION('',(1.E0,0.E0,0.E0));
#415=VECTOR('',#414,8.001E-1);
#416=CARTESIAN_POINT('',(-8.001E-1,-8.255E0,-1.878250943028E1));
#417=LINE('',#416,#415);
#418=DIRECTION('',(1.E0,0.E0,0.E0));
#419=VECTOR('',#418,8.001E-1);
#420=CARTESIAN_POINT('',(-8.001E-1,-7.969960947924E0,-1.909834568035E1));
#421=LINE('',#420,#419);
#422=DIRECTION('',(1.E0,0.E0,0.E0));
#423=VECTOR('',#422,8.001E-1);
#424=CARTESIAN_POINT('',(-8.001E-1,-5.985187837132E0,-1.930233625007E1));
#425=LINE('',#424,#423);
#426=DIRECTION('',(1.E0,0.E0,0.E0));
#427=VECTOR('',#426,8.001E-1);
#428=CARTESIAN_POINT('',(-8.001E-1,-5.952726889208E0,-1.9304E1));
#429=LINE('',#428,#427);
#430=DIRECTION('',(-1.E0,0.E0,0.E0));
#431=VECTOR('',#430,8.001E-1);
#432=CARTESIAN_POINT('',(0.E0,-4.445E0,-1.9304E1));
#433=LINE('',#432,#431);
#434=DIRECTION('',(-1.E0,0.E0,0.E0));
#435=VECTOR('',#434,8.001E-1);
#436=CARTESIAN_POINT('',(0.E0,-4.445E0,-2.31775E1));
#437=LINE('',#436,#435);
#438=DIRECTION('',(1.E0,0.E0,0.E0));
#439=VECTOR('',#438,8.001E-1);
#440=CARTESIAN_POINT('',(-8.001E-1,-5.952726889208E0,-2.31775E1));
#441=LINE('',#440,#439);
#442=DIRECTION('',(1.E0,0.E0,0.E0));
#443=VECTOR('',#442,8.001E-1);
#444=CARTESIAN_POINT('',(-8.001E-1,-7.969960947924E0,-2.338315431965E1));
#445=LINE('',#444,#443);
#446=DIRECTION('',(1.E0,0.E0,0.E0));
#447=VECTOR('',#446,8.001E-1);
#448=CARTESIAN_POINT('',(-8.001E-1,-5.985187837132E0,-2.317916374993E1));
#449=LINE('',#448,#447);
#450=DIRECTION('',(1.E0,0.E0,0.E0));
#451=VECTOR('',#450,8.001E-1);
#452=CARTESIAN_POINT('',(-8.001E-1,-8.255E0,-2.386250943028E1));
#453=LINE('',#452,#451);
#454=DIRECTION('',(1.E0,0.E0,0.E0));
#455=VECTOR('',#454,8.001E-1);
#456=CARTESIAN_POINT('',(-8.001E-1,-8.255E0,-2.369899056972E1));
#457=LINE('',#456,#455);
#458=DIRECTION('',(1.E0,0.E0,0.E0));
#459=VECTOR('',#458,8.001E-1);
#460=CARTESIAN_POINT('',(-8.001E-1,-7.969960947924E0,-2.417834568035E1));
#461=LINE('',#460,#459);
#462=DIRECTION('',(1.E0,0.E0,0.E0));
#463=VECTOR('',#462,8.001E-1);
#464=CARTESIAN_POINT('',(-8.001E-1,-5.985187837132E0,-2.438233625007E1));
#465=LINE('',#464,#463);
#466=DIRECTION('',(1.E0,0.E0,0.E0));
#467=VECTOR('',#466,8.001E-1);
#468=CARTESIAN_POINT('',(-8.001E-1,-5.952726889208E0,-2.4384E1));
#469=LINE('',#468,#467);
#470=DIRECTION('',(-1.E0,0.E0,0.E0));
#471=VECTOR('',#470,8.001E-1);
#472=CARTESIAN_POINT('',(0.E0,-3.175E0,-2.4384E1));
#473=LINE('',#472,#471);
#474=DIRECTION('',(-1.E0,0.E0,0.E0));
#475=VECTOR('',#474,8.001E-1);
#476=CARTESIAN_POINT('',(0.E0,-2.159E0,-2.54E1));
#477=LINE('',#476,#475);
#478=DIRECTION('',(-1.E0,0.E0,0.E0));
#479=VECTOR('',#478,8.001E-1);
#480=CARTESIAN_POINT('',(0.E0,2.159E0,-2.54E1));
#481=LINE('',#480,#479);
#482=DIRECTION('',(-1.E0,0.E0,0.E0));
#483=VECTOR('',#482,8.001E-1);
#484=CARTESIAN_POINT('',(0.E0,3.175E0,-2.4384E1));
#485=LINE('',#484,#483);
#486=DIRECTION('',(-1.E0,0.E0,0.E0));
#487=VECTOR('',#486,8.001E-1);
#488=CARTESIAN_POINT('',(0.E0,3.175E0,-1.016E0));
#489=LINE('',#488,#487);
#490=DIRECTION('',(-1.237240302065E-1,7.016738431599E-1,-7.016738431599E-1));
#491=VECTOR('',#490,1.122173795811E0);
#492=CARTESIAN_POINT('',(-6.612601353902E-1,2.159E0,0.E0));
#493=LINE('',#492,#491);
#494=DIRECTION('',(1.237240302065E-1,7.016738431599E-1,-7.016738431599E-1));
#495=VECTOR('',#494,1.122173795811E0);
#496=CARTESIAN_POINT('',(-1.388398646098E-1,2.159E0,0.E0));
#497=LINE('',#496,#495);
#498=DIRECTION('',(-1.E0,0.E0,0.E0));
#499=VECTOR('',#498,5.224202707803E-1);
#500=CARTESIAN_POINT('',(-1.388398646098E-1,2.159E0,0.E0));
#501=LINE('',#500,#499);
#502=DIRECTION('',(0.E0,1.E0,0.E0));
#503=VECTOR('',#502,4.318E0);
#504=CARTESIAN_POINT('',(-6.612601353902E-1,-2.159E0,0.E0));
#505=LINE('',#504,#503);
#506=DIRECTION('',(0.E0,1.E0,0.E0));
#507=VECTOR('',#506,4.318E0);
#508=CARTESIAN_POINT('',(-1.388398646098E-1,-2.159E0,0.E0));
#509=LINE('',#508,#507);
#510=DIRECTION('',(-1.E0,0.E0,0.E0));
#511=VECTOR('',#510,5.224202707803E-1);
#512=CARTESIAN_POINT('',(-1.388398646098E-1,-2.159E0,0.E0));
#513=LINE('',#512,#511);
#514=DIRECTION('',(-1.237240302065E-1,-7.016738431599E-1,-7.016738431599E-1));
#515=VECTOR('',#514,1.122173795811E0);
#516=CARTESIAN_POINT('',(-6.612601353902E-1,-2.159E0,0.E0));
#517=LINE('',#516,#515);
#518=DIRECTION('',(1.237240302065E-1,-7.016738431599E-1,-7.016738431599E-1));
#519=VECTOR('',#518,1.122173795811E0);
#520=CARTESIAN_POINT('',(-1.388398646098E-1,-2.159E0,0.E0));
#521=LINE('',#520,#519);
#522=DIRECTION('',(-1.E0,0.E0,0.E0));
#523=VECTOR('',#522,8.001E-1);
#524=CARTESIAN_POINT('',(0.E0,-3.175E0,-1.016E0));
#525=LINE('',#524,#523);
#526=DIRECTION('',(-1.E0,0.E0,0.E0));
#527=VECTOR('',#526,8.001E-1);
#528=CARTESIAN_POINT('',(0.E0,-3.175E0,-1.68275E1));
#529=LINE('',#528,#527);
#530=DIRECTION('',(-1.E0,0.E0,0.E0));
#531=VECTOR('',#530,8.001E-1);
#532=CARTESIAN_POINT('',(0.E0,-4.445E0,-1.68275E1));
#533=LINE('',#532,#531);
#534=DIRECTION('',(-1.E0,0.E0,0.E0));
#535=VECTOR('',#534,8.001E-1);
#536=CARTESIAN_POINT('',(0.E0,-4.445E0,-1.80975E1));
#537=LINE('',#536,#535);
#538=DIRECTION('',(1.E0,0.E0,0.E0));
#539=VECTOR('',#538,8.001E-1);
#540=CARTESIAN_POINT('',(-8.001E-1,-5.952726889208E0,-1.80975E1));
#541=LINE('',#540,#539);
#542=DIRECTION('',(1.E0,0.E0,0.E0));
#543=VECTOR('',#542,8.001E-1);
#544=CARTESIAN_POINT('',(-8.001E-1,-7.969960947924E0,-1.830315431965E1));
#545=LINE('',#544,#543);
#546=DIRECTION('',(1.E0,0.E0,0.E0));
#547=VECTOR('',#546,8.001E-1);
#548=CARTESIAN_POINT('',(-8.001E-1,-5.985187837132E0,-1.809916374993E1));
#549=LINE('',#548,#547);
#550=CARTESIAN_POINT('',(0.E0,3.175E0,-1.016E0));
#551=CARTESIAN_POINT('',(0.E0,3.175E0,-2.4384E1));
#552=VERTEX_POINT('',#550);
#553=VERTEX_POINT('',#551);
#554=CARTESIAN_POINT('',(0.E0,2.159E0,-2.54E1));
#555=VERTEX_POINT('',#554);
#556=CARTESIAN_POINT('',(0.E0,-2.159E0,-2.54E1));
#557=VERTEX_POINT('',#556);
#558=CARTESIAN_POINT('',(0.E0,-3.175E0,-2.4384E1));
#559=VERTEX_POINT('',#558);
#560=CARTESIAN_POINT('',(0.E0,-4.445E0,-2.31775E1));
#561=CARTESIAN_POINT('',(0.E0,-4.445E0,-1.9304E1));
#562=VERTEX_POINT('',#560);
#563=VERTEX_POINT('',#561);
#564=CARTESIAN_POINT('',(0.E0,-4.445E0,-1.80975E1));
#565=CARTESIAN_POINT('',(0.E0,-4.445E0,-1.68275E1));
#566=VERTEX_POINT('',#564);
#567=VERTEX_POINT('',#565);
#568=CARTESIAN_POINT('',(0.E0,-3.175E0,-1.68275E1));
#569=VERTEX_POINT('',#568);
#570=CARTESIAN_POINT('',(0.E0,-3.175E0,-1.016E0));
#571=VERTEX_POINT('',#570);
#572=CARTESIAN_POINT('',(-8.001E-1,3.175E0,-1.016E0));
#573=CARTESIAN_POINT('',(-8.001E-1,3.175E0,-2.4384E1));
#574=VERTEX_POINT('',#572);
#575=VERTEX_POINT('',#573);
#576=CARTESIAN_POINT('',(-8.001E-1,2.159E0,-2.54E1));
#577=VERTEX_POINT('',#576);
#578=CARTESIAN_POINT('',(-8.001E-1,-2.159E0,-2.54E1));
#579=VERTEX_POINT('',#578);
#580=CARTESIAN_POINT('',(-8.001E-1,-3.175E0,-2.4384E1));
#581=VERTEX_POINT('',#580);
#582=CARTESIAN_POINT('',(-8.001E-1,-4.445E0,-2.31775E1));
#583=CARTESIAN_POINT('',(-8.001E-1,-4.445E0,-1.9304E1));
#584=VERTEX_POINT('',#582);
#585=VERTEX_POINT('',#583);
#586=CARTESIAN_POINT('',(-8.001E-1,-4.445E0,-1.80975E1));
#587=CARTESIAN_POINT('',(-8.001E-1,-4.445E0,-1.68275E1));
#588=VERTEX_POINT('',#586);
#589=VERTEX_POINT('',#587);
#590=CARTESIAN_POINT('',(-8.001E-1,-3.175E0,-1.68275E1));
#591=VERTEX_POINT('',#590);
#592=CARTESIAN_POINT('',(-8.001E-1,-3.175E0,-1.016E0));
#593=VERTEX_POINT('',#592);
#594=CARTESIAN_POINT('',(0.E0,8.89E-1,-4.5212E0));
#595=CARTESIAN_POINT('',(0.E0,-8.89E-1,-4.5212E0));
#596=VERTEX_POINT('',#594);
#597=VERTEX_POINT('',#595);
#598=CARTESIAN_POINT('',(-8.001E-1,8.89E-1,-4.5212E0));
#599=CARTESIAN_POINT('',(-8.001E-1,-8.89E-1,-4.5212E0));
#600=VERTEX_POINT('',#598);
#601=VERTEX_POINT('',#599);
#602=CARTESIAN_POINT('',(0.E0,-7.969960947924E0,-1.830315431965E1));
#603=CARTESIAN_POINT('',(0.E0,-8.255E0,-1.861899056972E1));
#604=VERTEX_POINT('',#602);
#605=VERTEX_POINT('',#603);
#606=CARTESIAN_POINT('',(-8.001E-1,-8.255E0,-1.861899056972E1));
#607=VERTEX_POINT('',#606);
#608=CARTESIAN_POINT('',(-8.001E-1,-7.969960947924E0,-1.830315431965E1));
#609=VERTEX_POINT('',#608);
#610=CARTESIAN_POINT('',(0.E0,-8.255E0,-1.878250943028E1));
#611=CARTESIAN_POINT('',(0.E0,-7.969960947924E0,-1.909834568035E1));
#612=VERTEX_POINT('',#610);
#613=VERTEX_POINT('',#611);
#614=CARTESIAN_POINT('',(-8.001E-1,-7.969960947924E0,-1.909834568035E1));
#615=VERTEX_POINT('',#614);
#616=CARTESIAN_POINT('',(-8.001E-1,-8.255E0,-1.878250943028E1));
#617=VERTEX_POINT('',#616);
#618=CARTESIAN_POINT('',(0.E0,-8.255E0,-2.386250943028E1));
#619=CARTESIAN_POINT('',(0.E0,-7.969960947924E0,-2.417834568035E1));
#620=VERTEX_POINT('',#618);
#621=VERTEX_POINT('',#619);
#622=CARTESIAN_POINT('',(-8.001E-1,-7.969960947924E0,-2.417834568035E1));
#623=VERTEX_POINT('',#622);
#624=CARTESIAN_POINT('',(-8.001E-1,-8.255E0,-2.386250943028E1));
#625=VERTEX_POINT('',#624);
#626=CARTESIAN_POINT('',(0.E0,-7.969960947924E0,-2.338315431965E1));
#627=CARTESIAN_POINT('',(0.E0,-8.255E0,-2.369899056972E1));
#628=VERTEX_POINT('',#626);
#629=VERTEX_POINT('',#627);
#630=CARTESIAN_POINT('',(-8.001E-1,-8.255E0,-2.369899056972E1));
#631=VERTEX_POINT('',#630);
#632=CARTESIAN_POINT('',(-8.001E-1,-7.969960947924E0,-2.338315431965E1));
#633=VERTEX_POINT('',#632);
#634=CARTESIAN_POINT('',(0.E0,-5.952726889208E0,-1.80975E1));
#635=CARTESIAN_POINT('',(0.E0,-5.985187837132E0,-1.809916374993E1));
#636=VERTEX_POINT('',#634);
#637=VERTEX_POINT('',#635);
#638=CARTESIAN_POINT('',(-8.001E-1,-5.985187837132E0,-1.809916374993E1));
#639=VERTEX_POINT('',#638);
#640=CARTESIAN_POINT('',(-8.001E-1,-5.952726889208E0,-1.80975E1));
#641=VERTEX_POINT('',#640);
#642=CARTESIAN_POINT('',(0.E0,-5.985187837132E0,-1.930233625007E1));
#643=CARTESIAN_POINT('',(0.E0,-5.952726889208E0,-1.9304E1));
#644=VERTEX_POINT('',#642);
#645=VERTEX_POINT('',#643);
#646=CARTESIAN_POINT('',(-8.001E-1,-5.952726889208E0,-1.9304E1));
#647=VERTEX_POINT('',#646);
#648=CARTESIAN_POINT('',(-8.001E-1,-5.985187837132E0,-1.930233625007E1));
#649=VERTEX_POINT('',#648);
#650=CARTESIAN_POINT('',(0.E0,-5.985187837132E0,-2.438233625007E1));
#651=CARTESIAN_POINT('',(0.E0,-5.952726889208E0,-2.4384E1));
#652=VERTEX_POINT('',#650);
#653=VERTEX_POINT('',#651);
#654=CARTESIAN_POINT('',(-8.001E-1,-5.952726889208E0,-2.4384E1));
#655=VERTEX_POINT('',#654);
#656=CARTESIAN_POINT('',(-8.001E-1,-5.985187837132E0,-2.438233625007E1));
#657=VERTEX_POINT('',#656);
#658=CARTESIAN_POINT('',(0.E0,-5.952726889208E0,-2.31775E1));
#659=CARTESIAN_POINT('',(0.E0,-5.985187837132E0,-2.317916374993E1));
#660=VERTEX_POINT('',#658);
#661=VERTEX_POINT('',#659);
#662=CARTESIAN_POINT('',(-8.001E-1,-5.985187837132E0,-2.317916374993E1));
#663=VERTEX_POINT('',#662);
#664=CARTESIAN_POINT('',(-8.001E-1,-5.952726889208E0,-2.31775E1));
#665=VERTEX_POINT('',#664);
#666=CARTESIAN_POINT('',(0.E0,2.9464E0,-7.874E-1));
#667=CARTESIAN_POINT('',(0.E0,-2.9464E0,-7.874E-1));
#668=VERTEX_POINT('',#666);
#669=VERTEX_POINT('',#667);
#670=CARTESIAN_POINT('',(-8.001E-1,2.9464E0,-7.874E-1));
#671=CARTESIAN_POINT('',(-8.001E-1,-2.9464E0,-7.874E-1));
#672=VERTEX_POINT('',#670);
#673=VERTEX_POINT('',#671);
#674=CARTESIAN_POINT('',(-6.612601353902E-1,-2.159E0,0.E0));
#675=CARTESIAN_POINT('',(-6.612601353902E-1,2.159E0,0.E0));
#676=VERTEX_POINT('',#674);
#677=VERTEX_POINT('',#675);
#678=CARTESIAN_POINT('',(-1.388398646098E-1,-2.159E0,0.E0));
#679=CARTESIAN_POINT('',(-1.388398646098E-1,2.159E0,0.E0));
#680=VERTEX_POINT('',#678);
#681=VERTEX_POINT('',#679);
#682=CARTESIAN_POINT('',(0.E0,0.E0,0.E0));
#683=DIRECTION('',(-1.E0,0.E0,0.E0));
#684=DIRECTION('',(0.E0,1.E0,0.E0));
#685=AXIS2_PLACEMENT_3D('',#682,#683,#684);
#686=PLANE('',#685);
#688=ORIENTED_EDGE('',*,*,#687,.F.);
#690=ORIENTED_EDGE('',*,*,#689,.T.);
#692=ORIENTED_EDGE('',*,*,#691,.F.);
#694=ORIENTED_EDGE('',*,*,#693,.T.);
#696=ORIENTED_EDGE('',*,*,#695,.T.);
#698=ORIENTED_EDGE('',*,*,#697,.T.);
#700=ORIENTED_EDGE('',*,*,#699,.T.);
#702=ORIENTED_EDGE('',*,*,#701,.T.);
#704=ORIENTED_EDGE('',*,*,#703,.F.);
#706=ORIENTED_EDGE('',*,*,#705,.T.);
#708=ORIENTED_EDGE('',*,*,#707,.T.);
#710=ORIENTED_EDGE('',*,*,#709,.T.);
#712=ORIENTED_EDGE('',*,*,#711,.T.);
#714=ORIENTED_EDGE('',*,*,#713,.T.);
#716=ORIENTED_EDGE('',*,*,#715,.T.);
#718=ORIENTED_EDGE('',*,*,#717,.F.);
#720=ORIENTED_EDGE('',*,*,#719,.T.);
#722=ORIENTED_EDGE('',*,*,#721,.F.);
#724=ORIENTED_EDGE('',*,*,#723,.T.);
#726=ORIENTED_EDGE('',*,*,#725,.F.);
#728=ORIENTED_EDGE('',*,*,#727,.T.);
#730=ORIENTED_EDGE('',*,*,#729,.F.);
#732=ORIENTED_EDGE('',*,*,#731,.T.);
#734=ORIENTED_EDGE('',*,*,#733,.T.);
#736=ORIENTED_EDGE('',*,*,#735,.T.);
#738=ORIENTED_EDGE('',*,*,#737,.F.);
#740=ORIENTED_EDGE('',*,*,#739,.T.);
#742=ORIENTED_EDGE('',*,*,#741,.F.);
#744=ORIENTED_EDGE('',*,*,#743,.T.);
#745=EDGE_LOOP('',(#688,#690,#692,#694,#696,#698,#700,#702,#704,#706,#708,#710,
#712,#714,#716,#718,#720,#722,#724,#726,#728,#730,#732,#734,#736,#738,#740,#742,
#744));
#746=FACE_OUTER_BOUND('',#745,.F.);
#748=ORIENTED_EDGE('',*,*,#747,.T.);
#750=ORIENTED_EDGE('',*,*,#749,.T.);
#751=EDGE_LOOP('',(#748,#750));
#752=FACE_BOUND('',#751,.F.);
#754=CARTESIAN_POINT('',(0.E0,0.E0,-4.5212E0));
#755=DIRECTION('',(-1.E0,0.E0,0.E0));
#756=DIRECTION('',(0.E0,1.E0,0.E0));
#757=AXIS2_PLACEMENT_3D('',#754,#755,#756);
#758=CYLINDRICAL_SURFACE('',#757,8.89E-1);
#759=ORIENTED_EDGE('',*,*,#747,.F.);
#761=ORIENTED_EDGE('',*,*,#760,.T.);
#763=ORIENTED_EDGE('',*,*,#762,.T.);
#765=ORIENTED_EDGE('',*,*,#764,.F.);
#766=EDGE_LOOP('',(#759,#761,#763,#765));
#767=FACE_OUTER_BOUND('',#766,.F.);
#769=CARTESIAN_POINT('',(0.E0,0.E0,-4.5212E0));
#770=DIRECTION('',(-1.E0,0.E0,0.E0));
#771=DIRECTION('',(0.E0,1.E0,0.E0));
#772=AXIS2_PLACEMENT_3D('',#769,#770,#771);
#773=CYLINDRICAL_SURFACE('',#772,8.89E-1);
#774=ORIENTED_EDGE('',*,*,#749,.F.);
#775=ORIENTED_EDGE('',*,*,#764,.T.);
#777=ORIENTED_EDGE('',*,*,#776,.T.);
#778=ORIENTED_EDGE('',*,*,#760,.F.);
#779=EDGE_LOOP('',(#774,#775,#777,#778));
#780=FACE_OUTER_BOUND('',#779,.F.);
#782=CARTESIAN_POINT('',(-8.001E-1,0.E0,0.E0));
#783=DIRECTION('',(-1.E0,0.E0,0.E0));
#784=DIRECTION('',(0.E0,1.E0,0.E0));
#785=AXIS2_PLACEMENT_3D('',#782,#783,#784);
#786=PLANE('',#785);
#788=ORIENTED_EDGE('',*,*,#787,.F.);
#790=ORIENTED_EDGE('',*,*,#789,.F.);
#792=ORIENTED_EDGE('',*,*,#791,.F.);
#794=ORIENTED_EDGE('',*,*,#793,.F.);
#796=ORIENTED_EDGE('',*,*,#795,.F.);
#798=ORIENTED_EDGE('',*,*,#797,.F.);
#800=ORIENTED_EDGE('',*,*,#799,.F.);
#802=ORIENTED_EDGE('',*,*,#801,.F.);
#804=ORIENTED_EDGE('',*,*,#803,.F.);
#806=ORIENTED_EDGE('',*,*,#805,.F.);
#808=ORIENTED_EDGE('',*,*,#807,.F.);
#810=ORIENTED_EDGE('',*,*,#809,.F.);
#812=ORIENTED_EDGE('',*,*,#811,.F.);
#814=ORIENTED_EDGE('',*,*,#813,.F.);
#816=ORIENTED_EDGE('',*,*,#815,.F.);
#818=ORIENTED_EDGE('',*,*,#817,.F.);
#820=ORIENTED_EDGE('',*,*,#819,.F.);
#822=ORIENTED_EDGE('',*,*,#821,.F.);
#824=ORIENTED_EDGE('',*,*,#823,.F.);
#826=ORIENTED_EDGE('',*,*,#825,.F.);
#828=ORIENTED_EDGE('',*,*,#827,.F.);
#830=ORIENTED_EDGE('',*,*,#829,.T.);
#832=ORIENTED_EDGE('',*,*,#831,.F.);
#834=ORIENTED_EDGE('',*,*,#833,.F.);
#836=ORIENTED_EDGE('',*,*,#835,.F.);
#838=ORIENTED_EDGE('',*,*,#837,.F.);
#840=ORIENTED_EDGE('',*,*,#839,.F.);
#842=ORIENTED_EDGE('',*,*,#841,.F.);
#844=ORIENTED_EDGE('',*,*,#843,.F.);
#845=EDGE_LOOP('',(#788,#790,#792,#794,#796,#798,#800,#802,#804,#806,#808,#810,
#812,#814,#816,#818,#820,#822,#824,#826,#828,#830,#832,#834,#836,#838,#840,#842,
#844));
#846=FACE_OUTER_BOUND('',#845,.F.);
#847=ORIENTED_EDGE('',*,*,#762,.F.);
#848=ORIENTED_EDGE('',*,*,#776,.F.);
#849=EDGE_LOOP('',(#847,#848));
#850=FACE_BOUND('',#849,.F.);
#852=CARTESIAN_POINT('',(-8.480413665885E-1,-7.9375E0,-1.861899056972E1));
#853=DIRECTION('',(1.E0,0.E0,0.E0));
#854=DIRECTION('',(0.E0,-1.022392060602E-1,9.947598427481E-1));
#855=AXIS2_PLACEMENT_3D('',#852,#853,#854);
#856=CYLINDRICAL_SURFACE('',#855,3.175E-1);
#857=ORIENTED_EDGE('',*,*,#687,.T.);
#859=ORIENTED_EDGE('',*,*,#858,.F.);
#860=ORIENTED_EDGE('',*,*,#787,.T.);
#862=ORIENTED_EDGE('',*,*,#861,.T.);
#863=EDGE_LOOP('',(#857,#859,#860,#862));
#864=FACE_OUTER_BOUND('',#863,.F.);
#866=CARTESIAN_POINT('',(0.E0,-8.255E0,-1.906905E1));
#867=DIRECTION('',(0.E0,-1.E0,0.E0));
#868=DIRECTION('',(0.E0,0.E0,1.E0));
#869=AXIS2_PLACEMENT_3D('',#866,#867,#868);
#870=PLANE('',#869);
#871=ORIENTED_EDGE('',*,*,#858,.T.);
#872=ORIENTED_EDGE('',*,*,#743,.F.);
#874=ORIENTED_EDGE('',*,*,#873,.F.);
#875=ORIENTED_EDGE('',*,*,#789,.T.);
#876=EDGE_LOOP('',(#871,#872,#874,#875));
#877=FACE_OUTER_BOUND('',#876,.F.);
#879=CARTESIAN_POINT('',(-8.480413665885E-1,-7.9375E0,-1.878250943028E1));
#880=DIRECTION('',(1.E0,0.E0,0.E0));
#881=DIRECTION('',(0.E0,-1.E0,0.E0));
#882=AXIS2_PLACEMENT_3D('',#879,#880,#881);
#883=CYLINDRICAL_SURFACE('',#882,3.175E-1);
#884=ORIENTED_EDGE('',*,*,#741,.T.);
#886=ORIENTED_EDGE('',*,*,#885,.F.);
#887=ORIENTED_EDGE('',*,*,#791,.T.);
#888=ORIENTED_EDGE('',*,*,#873,.T.);
#889=EDGE_LOOP('',(#884,#886,#887,#888));
#890=FACE_OUTER_BOUND('',#889,.F.);
#892=CARTESIAN_POINT('',(0.E0,-5.969E0,-1.9304E1));
#893=DIRECTION('',(0.E0,-1.022392060602E-1,-9.947598427481E-1));
#894=DIRECTION('',(0.E0,-9.947598427481E-1,1.022392060602E-1));
#895=AXIS2_PLACEMENT_3D('',#892,#893,#894);
#896=PLANE('',#895);
#897=ORIENTED_EDGE('',*,*,#885,.T.);
#898=ORIENTED_EDGE('',*,*,#739,.F.);
#900=ORIENTED_EDGE('',*,*,#899,.F.);
#901=ORIENTED_EDGE('',*,*,#793,.T.);
#902=EDGE_LOOP('',(#897,#898,#900,#901));
#903=FACE_OUTER_BOUND('',#902,.F.);
#905=CARTESIAN_POINT('',(-8.480413665885E-1,-5.952726889208E0,-1.89865E1));
#906=DIRECTION('',(1.E0,0.E0,0.E0));
#907=DIRECTION('',(0.E0,-1.022392060602E-1,-9.947598427481E-1));
#908=AXIS2_PLACEMENT_3D('',#905,#906,#907);
#909=CYLINDRICAL_SURFACE('',#908,3.175E-1);
#910=ORIENTED_EDGE('',*,*,#737,.T.);
#912=ORIENTED_EDGE('',*,*,#911,.F.);
#913=ORIENTED_EDGE('',*,*,#795,.T.);
#914=ORIENTED_EDGE('',*,*,#899,.T.);
#915=EDGE_LOOP('',(#910,#912,#913,#914));
#916=FACE_OUTER_BOUND('',#915,.F.);
#918=CARTESIAN_POINT('',(0.E0,-4.445E0,-1.9304E1));
#919=DIRECTION('',(0.E0,0.E0,-1.E0));
#920=DIRECTION('',(0.E0,-1.E0,0.E0));
#921=AXIS2_PLACEMENT_3D('',#918,#919,#920);
#922=PLANE('',#921);
#923=ORIENTED_EDGE('',*,*,#911,.T.);
#924=ORIENTED_EDGE('',*,*,#735,.F.);
#926=ORIENTED_EDGE('',*,*,#925,.T.);
#927=ORIENTED_EDGE('',*,*,#797,.T.);
#928=EDGE_LOOP('',(#923,#924,#926,#927));
#929=FACE_OUTER_BOUND('',#928,.F.);
#931=CARTESIAN_POINT('',(0.E0,-4.445E0,-2.31775E1));
#932=DIRECTION('',(0.E0,-1.E0,0.E0));
#933=DIRECTION('',(0.E0,0.E0,1.E0));
#934=AXIS2_PLACEMENT_3D('',#931,#932,#933);
#935=PLANE('',#934);
#936=ORIENTED_EDGE('',*,*,#733,.F.);
#938=ORIENTED_EDGE('',*,*,#937,.T.);
#939=ORIENTED_EDGE('',*,*,#799,.T.);
#940=ORIENTED_EDGE('',*,*,#925,.F.);
#941=EDGE_LOOP('',(#936,#938,#939,#940));
#942=FACE_OUTER_BOUND('',#941,.F.);
#944=CARTESIAN_POINT('',(0.E0,-5.969E0,-2.31775E1));
#945=DIRECTION('',(0.E0,0.E0,1.E0));
#946=DIRECTION('',(0.E0,1.E0,0.E0));
#947=AXIS2_PLACEMENT_3D('',#944,#945,#946);
#948=PLANE('',#947);
#950=ORIENTED_EDGE('',*,*,#949,.F.);
#951=ORIENTED_EDGE('',*,*,#801,.T.);
#952=ORIENTED_EDGE('',*,*,#937,.F.);
#953=ORIENTED_EDGE('',*,*,#731,.F.);
#954=EDGE_LOOP('',(#950,#951,#952,#953));
#955=FACE_OUTER_BOUND('',#954,.F.);
#957=CARTESIAN_POINT('',(-8.480413665885E-1,-5.952726889208E0,-2.3495E1));
#958=DIRECTION('',(1.E0,0.E0,0.E0));
#959=DIRECTION('',(0.E0,0.E0,1.E0));
#960=AXIS2_PLACEMENT_3D('',#957,#958,#959);
#961=CYLINDRICAL_SURFACE('',#960,3.175E-1);
#962=ORIENTED_EDGE('',*,*,#729,.T.);
#964=ORIENTED_EDGE('',*,*,#963,.F.);
#965=ORIENTED_EDGE('',*,*,#803,.T.);
#966=ORIENTED_EDGE('',*,*,#949,.T.);
#967=EDGE_LOOP('',(#962,#964,#965,#966));
#968=FACE_OUTER_BOUND('',#967,.F.);
#970=CARTESIAN_POINT('',(0.E0,-8.255E0,-2.341245E1));
#971=DIRECTION('',(0.E0,-1.022392060602E-1,9.947598427481E-1));
#972=DIRECTION('',(0.E0,9.947598427481E-1,1.022392060602E-1));
#973=AXIS2_PLACEMENT_3D('',#970,#971,#972);
#974=PLANE('',#973);
#976=ORIENTED_EDGE('',*,*,#975,.F.);
#977=ORIENTED_EDGE('',*,*,#805,.T.);
#978=ORIENTED_EDGE('',*,*,#963,.T.);
#979=ORIENTED_EDGE('',*,*,#727,.F.);
#980=EDGE_LOOP('',(#976,#977,#978,#979));
#981=FACE_OUTER_BOUND('',#980,.F.);
#983=CARTESIAN_POINT('',(-8.480413665885E-1,-7.9375E0,-2.369899056972E1));
#984=DIRECTION('',(1.E0,0.E0,0.E0));
#985=DIRECTION('',(0.E0,-1.022392060602E-1,9.947598427481E-1));
#986=AXIS2_PLACEMENT_3D('',#983,#984,#985);
#987=CYLINDRICAL_SURFACE('',#986,3.175E-1);
#988=ORIENTED_EDGE('',*,*,#725,.T.);
#990=ORIENTED_EDGE('',*,*,#989,.F.);
#991=ORIENTED_EDGE('',*,*,#807,.T.);
#992=ORIENTED_EDGE('',*,*,#975,.T.);
#993=EDGE_LOOP('',(#988,#990,#991,#992));
#994=FACE_OUTER_BOUND('',#993,.F.);
#996=CARTESIAN_POINT('',(0.E0,-8.255E0,-2.414905E1));
#997=DIRECTION('',(0.E0,-1.E0,0.E0));
#998=DIRECTION('',(0.E0,0.E0,1.E0));
#999=AXIS2_PLACEMENT_3D('',#996,#997,#998);
#1000=PLANE('',#999);
#1002=ORIENTED_EDGE('',*,*,#1001,.F.);
#1003=ORIENTED_EDGE('',*,*,#809,.T.);
#1004=ORIENTED_EDGE('',*,*,#989,.T.);
#1005=ORIENTED_EDGE('',*,*,#723,.F.);
#1006=EDGE_LOOP('',(#1002,#1003,#1004,#1005));
#1007=FACE_OUTER_BOUND('',#1006,.F.);
#1009=CARTESIAN_POINT('',(-8.480413665885E-1,-7.9375E0,-2.386250943028E1));
#1010=DIRECTION('',(1.E0,0.E0,0.E0));
#1011=DIRECTION('',(0.E0,-1.E0,-1.118964938205E-14));
#1012=AXIS2_PLACEMENT_3D('',#1009,#1010,#1011);
#1013=CYLINDRICAL_SURFACE('',#1012,3.175E-1);
#1014=ORIENTED_EDGE('',*,*,#721,.T.);
#1016=ORIENTED_EDGE('',*,*,#1015,.F.);
#1017=ORIENTED_EDGE('',*,*,#811,.T.);
#1018=ORIENTED_EDGE('',*,*,#1001,.T.);
#1019=EDGE_LOOP('',(#1014,#1016,#1017,#1018));
#1020=FACE_OUTER_BOUND('',#1019,.F.);
#1022=CARTESIAN_POINT('',(0.E0,-5.969E0,-2.4384E1));
#1023=DIRECTION('',(0.E0,-1.022392060602E-1,-9.947598427481E-1));
#1024=DIRECTION('',(0.E0,-9.947598427481E-1,1.022392060602E-1));
#1025=AXIS2_PLACEMENT_3D('',#1022,#1023,#1024);
#1026=PLANE('',#1025);
#1027=ORIENTED_EDGE('',*,*,#1015,.T.);
#1028=ORIENTED_EDGE('',*,*,#719,.F.);
#1030=ORIENTED_EDGE('',*,*,#1029,.F.);
#1031=ORIENTED_EDGE('',*,*,#813,.T.);
#1032=EDGE_LOOP('',(#1027,#1028,#1030,#1031));
#1033=FACE_OUTER_BOUND('',#1032,.F.);
#1035=CARTESIAN_POINT('',(-8.480413665885E-1,-5.952726889208E0,-2.40665E1));
#1036=DIRECTION('',(1.E0,0.E0,0.E0));
#1037=DIRECTION('',(0.E0,-1.022392060602E-1,-9.947598427481E-1));
#1038=AXIS2_PLACEMENT_3D('',#1035,#1036,#1037);
#1039=CYLINDRICAL_SURFACE('',#1038,3.175E-1);
#1040=ORIENTED_EDGE('',*,*,#717,.T.);
#1042=ORIENTED_EDGE('',*,*,#1041,.F.);
#1043=ORIENTED_EDGE('',*,*,#815,.T.);
#1044=ORIENTED_EDGE('',*,*,#1029,.T.);
#1045=EDGE_LOOP('',(#1040,#1042,#1043,#1044));
#1046=FACE_OUTER_BOUND('',#1045,.F.);
#1048=CARTESIAN_POINT('',(0.E0,-3.175E0,-2.4384E1));
#1049=DIRECTION('',(0.E0,0.E0,-1.E0));
#1050=DIRECTION('',(0.E0,-1.E0,0.E0));
#1051=AXIS2_PLACEMENT_3D('',#1048,#1049,#1050);
#1052=PLANE('',#1051);
#1053=ORIENTED_EDGE('',*,*,#1041,.T.);
#1054=ORIENTED_EDGE('',*,*,#715,.F.);
#1056=ORIENTED_EDGE('',*,*,#1055,.T.);
#1057=ORIENTED_EDGE('',*,*,#817,.T.);
#1058=EDGE_LOOP('',(#1053,#1054,#1056,#1057));
#1059=FACE_OUTER_BOUND('',#1058,.F.);
#1061=CARTESIAN_POINT('',(0.E0,-2.159E0,-2.54E1));
#1062=DIRECTION('',(0.E0,-7.071067811865E-1,-7.071067811865E-1));
#1063=DIRECTION('',(0.E0,-7.071067811865E-1,7.071067811865E-1));
#1064=AXIS2_PLACEMENT_3D('',#1061,#1062,#1063);
#1065=PLANE('',#1064);
#1066=ORIENTED_EDGE('',*,*,#713,.F.);
#1068=ORIENTED_EDGE('',*,*,#1067,.T.);
#1069=ORIENTED_EDGE('',*,*,#819,.T.);
#1070=ORIENTED_EDGE('',*,*,#1055,.F.);
#1071=EDGE_LOOP('',(#1066,#1068,#1069,#1070));
#1072=FACE_OUTER_BOUND('',#1071,.F.);
#1074=CARTESIAN_POINT('',(0.E0,2.159E0,-2.54E1));
#1075=DIRECTION('',(0.E0,0.E0,-1.E0));
#1076=DIRECTION('',(0.E0,-1.E0,0.E0));
#1077=AXIS2_PLACEMENT_3D('',#1074,#1075,#1076);
#1078=PLANE('',#1077);
#1079=ORIENTED_EDGE('',*,*,#711,.F.);
#1081=ORIENTED_EDGE('',*,*,#1080,.T.);
#1082=ORIENTED_EDGE('',*,*,#821,.T.);
#1083=ORIENTED_EDGE('',*,*,#1067,.F.);
#1084=EDGE_LOOP('',(#1079,#1081,#1082,#1083));
#1085=FACE_OUTER_BOUND('',#1084,.F.);
#1087=CARTESIAN_POINT('',(0.E0,3.175E0,-2.4384E1));
#1088=DIRECTION('',(0.E0,7.071067811865E-1,-7.071067811866E-1));
#1089=DIRECTION('',(0.E0,-7.071067811866E-1,-7.071067811865E-1));
#1090=AXIS2_PLACEMENT_3D('',#1087,#1088,#1089);
#1091=PLANE('',#1090);
#1092=ORIENTED_EDGE('',*,*,#709,.F.);
#1094=ORIENTED_EDGE('',*,*,#1093,.T.);
#1095=ORIENTED_EDGE('',*,*,#823,.T.);
#1096=ORIENTED_EDGE('',*,*,#1080,.F.);
#1097=EDGE_LOOP('',(#1092,#1094,#1095,#1096));
#1098=FACE_OUTER_BOUND('',#1097,.F.);
#1100=CARTESIAN_POINT('',(0.E0,3.175E0,-1.016E0));
#1101=DIRECTION('',(0.E0,1.E0,0.E0));
#1102=DIRECTION('',(0.E0,0.E0,-1.E0));
#1103=AXIS2_PLACEMENT_3D('',#1100,#1101,#1102);
#1104=PLANE('',#1103);
#1105=ORIENTED_EDGE('',*,*,#707,.F.);
#1107=ORIENTED_EDGE('',*,*,#1106,.T.);
#1108=ORIENTED_EDGE('',*,*,#825,.T.);
#1109=ORIENTED_EDGE('',*,*,#1093,.F.);
#1110=EDGE_LOOP('',(#1105,#1107,#1108,#1109));
#1111=FACE_OUTER_BOUND('',#1110,.F.);
#1113=CARTESIAN_POINT('',(0.E0,2.159E0,0.E0));
#1114=DIRECTION('',(0.E0,7.071067811865E-1,7.071067811866E-1));
#1115=DIRECTION('',(0.E0,7.071067811866E-1,-7.071067811865E-1));
#1116=AXIS2_PLACEMENT_3D('',#1113,#1114,#1115);
#1117=PLANE('',#1116);
#1119=ORIENTED_EDGE('',*,*,#1118,.T.);
#1120=ORIENTED_EDGE('',*,*,#827,.T.);
#1121=ORIENTED_EDGE('',*,*,#1106,.F.);
#1122=ORIENTED_EDGE('',*,*,#705,.F.);
#1124=ORIENTED_EDGE('',*,*,#1123,.F.);
#1126=ORIENTED_EDGE('',*,*,#1125,.T.);
#1127=EDGE_LOOP('',(#1119,#1120,#1121,#1122,#1124,#1126));
#1128=FACE_OUTER_BOUND('',#1127,.F.);
#1130=CARTESIAN_POINT('',(-8.001E-1,-3.175E0,-7.874E-1));
#1131=DIRECTION('',(9.848077530122E-1,0.E0,-1.736481776669E-1));
#1132=DIRECTION('',(1.736481776669E-1,0.E0,9.848077530122E-1));
#1133=AXIS2_PLACEMENT_3D('',#1130,#1131,#1132);
#1134=PLANE('',#1133);
#1135=ORIENTED_EDGE('',*,*,#1118,.F.);
#1137=ORIENTED_EDGE('',*,*,#1136,.F.);
#1139=ORIENTED_EDGE('',*,*,#1138,.T.);
#1140=ORIENTED_EDGE('',*,*,#829,.F.);
#1141=EDGE_LOOP('',(#1135,#1137,#1139,#1140));
#1142=FACE_OUTER_BOUND('',#1141,.F.);
#1144=CARTESIAN_POINT('',(0.E0,-2.159E0,0.E0));
#1145=DIRECTION('',(0.E0,0.E0,1.E0));
#1146=DIRECTION('',(0.E0,1.E0,0.E0));
#1147=AXIS2_PLACEMENT_3D('',#1144,#1145,#1146);
#1148=PLANE('',#1147);
#1149=ORIENTED_EDGE('',*,*,#1136,.T.);
#1150=ORIENTED_EDGE('',*,*,#1125,.F.);
#1152=ORIENTED_EDGE('',*,*,#1151,.F.);
#1154=ORIENTED_EDGE('',*,*,#1153,.T.);
#1155=EDGE_LOOP('',(#1149,#1150,#1152,#1154));
#1156=FACE_OUTER_BOUND('',#1155,.F.);
#1158=CARTESIAN_POINT('',(-1.388398646098E-1,-3.175E0,0.E0));
#1159=DIRECTION('',(-9.848077530122E-1,0.E0,-1.736481776669E-1));
#1160=DIRECTION('',(1.736481776669E-1,0.E0,-9.848077530122E-1));
#1161=AXIS2_PLACEMENT_3D('',#1158,#1159,#1160);
#1162=PLANE('',#1161);
#1164=ORIENTED_EDGE('',*,*,#1163,.F.);
#1165=ORIENTED_EDGE('',*,*,#1151,.T.);
#1166=ORIENTED_EDGE('',*,*,#1123,.T.);
#1167=ORIENTED_EDGE('',*,*,#703,.T.);
#1168=EDGE_LOOP('',(#1164,#1165,#1166,#1167));
#1169=FACE_OUTER_BOUND('',#1168,.F.);
#1171=CARTESIAN_POINT('',(0.E0,-3.175E0,-1.016E0));
#1172=DIRECTION('',(0.E0,-7.071067811865E-1,7.071067811866E-1));
#1173=DIRECTION('',(0.E0,7.071067811866E-1,7.071067811865E-1));
#1174=AXIS2_PLACEMENT_3D('',#1171,#1172,#1173);
#1175=PLANE('',#1174);
#1176=ORIENTED_EDGE('',*,*,#1138,.F.);
#1177=ORIENTED_EDGE('',*,*,#1153,.F.);
#1178=ORIENTED_EDGE('',*,*,#1163,.T.);
#1179=ORIENTED_EDGE('',*,*,#701,.F.);
#1181=ORIENTED_EDGE('',*,*,#1180,.T.);
#1182=ORIENTED_EDGE('',*,*,#831,.T.);
#1183=EDGE_LOOP('',(#1176,#1177,#1178,#1179,#1181,#1182));
#1184=FACE_OUTER_BOUND('',#1183,.F.);
#1186=CARTESIAN_POINT('',(0.E0,-3.175E0,-1.68275E1));
#1187=DIRECTION('',(0.E0,-1.E0,0.E0));
#1188=DIRECTION('',(0.E0,0.E0,1.E0));
#1189=AXIS2_PLACEMENT_3D('',#1186,#1187,#1188);
#1190=PLANE('',#1189);
#1191=ORIENTED_EDGE('',*,*,#699,.F.);
#1193=ORIENTED_EDGE('',*,*,#1192,.T.);
#1194=ORIENTED_EDGE('',*,*,#833,.T.);
#1195=ORIENTED_EDGE('',*,*,#1180,.F.);
#1196=EDGE_LOOP('',(#1191,#1193,#1194,#1195));
#1197=FACE_OUTER_BOUND('',#1196,.F.);
#1199=CARTESIAN_POINT('',(0.E0,-4.445E0,-1.68275E1));
#1200=DIRECTION('',(0.E0,0.E0,1.E0));
#1201=DIRECTION('',(0.E0,1.E0,0.E0));
#1202=AXIS2_PLACEMENT_3D('',#1199,#1200,#1201);
#1203=PLANE('',#1202);
#1204=ORIENTED_EDGE('',*,*,#697,.F.);
#1206=ORIENTED_EDGE('',*,*,#1205,.T.);
#1207=ORIENTED_EDGE('',*,*,#835,.T.);
#1208=ORIENTED_EDGE('',*,*,#1192,.F.);
#1209=EDGE_LOOP('',(#1204,#1206,#1207,#1208));
#1210=FACE_OUTER_BOUND('',#1209,.F.);
#1212=CARTESIAN_POINT('',(0.E0,-4.445E0,-1.80975E1));
#1213=DIRECTION('',(0.E0,-1.E0,0.E0));
#1214=DIRECTION('',(0.E0,0.E0,1.E0));
#1215=AXIS2_PLACEMENT_3D('',#1212,#1213,#1214);
#1216=PLANE('',#1215);
#1217=ORIENTED_EDGE('',*,*,#695,.F.);
#1219=ORIENTED_EDGE('',*,*,#1218,.T.);
#1220=ORIENTED_EDGE('',*,*,#837,.T.);
#1221=ORIENTED_EDGE('',*,*,#1205,.F.);
#1222=EDGE_LOOP('',(#1217,#1219,#1220,#1221));
#1223=FACE_OUTER_BOUND('',#1222,.F.);
#1225=CARTESIAN_POINT('',(0.E0,-5.969E0,-1.80975E1));
#1226=DIRECTION('',(0.E0,0.E0,1.E0));
#1227=DIRECTION('',(0.E0,1.E0,0.E0));
#1228=AXIS2_PLACEMENT_3D('',#1225,#1226,#1227);
#1229=PLANE('',#1228);
#1231=ORIENTED_EDGE('',*,*,#1230,.F.);
#1232=ORIENTED_EDGE('',*,*,#839,.T.);
#1233=ORIENTED_EDGE('',*,*,#1218,.F.);
#1234=ORIENTED_EDGE('',*,*,#693,.F.);
#1235=EDGE_LOOP('',(#1231,#1232,#1233,#1234));
#1236=FACE_OUTER_BOUND('',#1235,.F.);
#1238=CARTESIAN_POINT('',(-8.480413665885E-1,-5.952726889208E0,-1.8415E1));
#1239=DIRECTION('',(1.E0,0.E0,0.E0));
#1240=DIRECTION('',(0.E0,0.E0,1.E0));
#1241=AXIS2_PLACEMENT_3D('',#1238,#1239,#1240);
#1242=CYLINDRICAL_SURFACE('',#1241,3.175E-1);
#1243=ORIENTED_EDGE('',*,*,#691,.T.);
#1245=ORIENTED_EDGE('',*,*,#1244,.F.);
#1246=ORIENTED_EDGE('',*,*,#841,.T.);
#1247=ORIENTED_EDGE('',*,*,#1230,.T.);
#1248=EDGE_LOOP('',(#1243,#1245,#1246,#1247));
#1249=FACE_OUTER_BOUND('',#1248,.F.);
#1251=CARTESIAN_POINT('',(0.E0,-8.255E0,-1.833245E1));
#1252=DIRECTION('',(0.E0,-1.022392060602E-1,9.947598427481E-1));
#1253=DIRECTION('',(0.E0,9.947598427481E-1,1.022392060602E-1));
#1254=AXIS2_PLACEMENT_3D('',#1251,#1252,#1253);
#1255=PLANE('',#1254);
#1256=ORIENTED_EDGE('',*,*,#861,.F.);
#1257=ORIENTED_EDGE('',*,*,#843,.T.);
#1258=ORIENTED_EDGE('',*,*,#1244,.T.);
#1259=ORIENTED_EDGE('',*,*,#689,.F.);
#1260=EDGE_LOOP('',(#1256,#1257,#1258,#1259));
#1261=FACE_OUTER_BOUND('',#1260,.F.);
#1263=CLOSED_SHELL('',(#753,#768,#781,#851,#865,#878,#891,#904,#917,#930,#943,
#956,#969,#982,#995,#1008,#1021,#1034,#1047,#1060,#1073,#1086,#1099,#1112,#1129,
#1143,#1157,#1170,#1185,#1198,#1211,#1224,#1237,#1250,#1262));
#1264=MANIFOLD_SOLID_BREP('',#1263);
#1267=PLANE_ANGLE_MEASURE_WITH_UNIT(PLANE_ANGLE_MEASURE(1.745329251994E-2),
#1266);
#1268=(CONVERSION_BASED_UNIT('DEGREE',#1267)NAMED_UNIT(*)PLANE_ANGLE_UNIT());
#1270=UNCERTAINTY_MEASURE_WITH_UNIT(LENGTH_MEASURE(3.063737639857E-3),#1265,
'distance_accuracy_value',
'Maximum model space distance between geometric entities at asserted connectivities');
#1273=APPLICATION_CONTEXT('automotive_design');
#1274=APPLICATION_PROTOCOL_DEFINITION('international standard',
'automotive_design',2001,#1273);
#1275=PRODUCT_DEFINITION_CONTEXT('part definition',#1273,'design');
#1276=PRODUCT_CONTEXT('',#1273,'mechanical');
#1277=PRODUCT('C-63952-1','C-63952-1','NOT SPECIFIED',(#1276));
#1278=PRODUCT_DEFINITION_FORMATION('1','LAST_VERSION',#1277);
#1286=DERIVED_UNIT_ELEMENT(#1285,2.E0);
#1287=DERIVED_UNIT((#1286));
#1288=MEASURE_REPRESENTATION_ITEM('surface area measure',AREA_MEASURE(
4.139384907408E2),#1287);
#1293=DERIVED_UNIT_ELEMENT(#1292,3.E0);
#1294=DERIVED_UNIT((#1293));
#1295=MEASURE_REPRESENTATION_ITEM('volume measure',VOLUME_MEASURE(
1.390006642860E2),#1294);
#1299=CARTESIAN_POINT('centre point',(-4.0005E-1,-4.969665139772E-1,
-1.369673934437E1));
#1304=DERIVED_UNIT_ELEMENT(#1303,2.E0);
#1305=DERIVED_UNIT((#1304));
#1306=MEASURE_REPRESENTATION_ITEM('surface area measure',AREA_MEASURE(
4.139384907408E2),#1305);
#1311=DERIVED_UNIT_ELEMENT(#1310,3.E0);
#1312=DERIVED_UNIT((#1311));
#1313=MEASURE_REPRESENTATION_ITEM('volume measure',VOLUME_MEASURE(
1.390006642860E2),#1312);
#1317=CARTESIAN_POINT('centre point',(-4.0005E-1,-4.969665139772E-1,
-1.369673934437E1));
#1322=PRODUCT_RELATED_PRODUCT_CATEGORY('part','',(#1277));
#1=DRAUGHTING_PRE_DEFINED_COLOUR('black');
#2=COLOUR_RGB('',0.E0,0.E0,3.6E-1);
#3=COLOUR_RGB('',0.E0,0.E0,4.8E-1);
#4=DRAUGHTING_PRE_DEFINED_COLOUR('blue');
#5=COLOUR_RGB('',0.E0,5.8824E-2,4.58824E-1);
#6=COLOUR_RGB('',0.E0,1.80392E-1,4.78431E-1);
#7=COLOUR_RGB('',0.E0,3.6E-1,9.E-2);
#8=COLOUR_RGB('',0.E0,3.6E-1,2.7E-1);
#9=COLOUR_RGB('',0.E0,5.6E-1,6.4E-1);
#10=COLOUR_RGB('',0.E0,5.8E-1,8.E-1);
#11=COLOUR_RGB('',0.E0,7.1E-1,6.6E-1);
#12=COLOUR_RGB('',0.E0,7.13E-1,0.E0);
#13=COLOUR_RGB('',0.E0,9.5E-1,8.4E-1);
#14=DRAUGHTING_PRE_DEFINED_COLOUR('green');
#15=DRAUGHTING_PRE_DEFINED_COLOUR('cyan');
#16=COLOUR_RGB('',1.1765E-2,1.9608E-2,3.9216E-2);
#17=COLOUR_RGB('',4.E-2,0.E0,1.6E-1);
#18=COLOUR_RGB('',3.9216E-2,2.19608E-1,1.21569E-1);
#19=COLOUR_RGB('',3.9216E-2,3.60784E-1,2.E-1);
#20=COLOUR_RGB('',5.098E-2,7.0588E-2,1.01961E-1);
#21=COLOUR_RGB('',9.E-2,0.E0,1.2E-1);
#22=COLOUR_RGB('',9.0196E-2,1.60784E-1,1.09804E-1);
#23=COLOUR_RGB('',9.0196E-2,3.80392E-1,6.70588E-1);
#24=COLOUR_RGB('',1.E-1,0.E0,2.5E-1);
#25=COLOUR_RGB('',1.01961E-1,4.78431E-1,3.88235E-1);
#26=COLOUR_RGB('',1.09804E-1,1.4902E-1,9.0196E-2);
#27=COLOUR_RGB('',1.4902E-1,3.09804E-1,5.29412E-1);
#28=COLOUR_RGB('',1.4902E-1,4.E-1,1.60784E-1);
#29=COLOUR_RGB('',1.6E-1,3.2E-2,0.E0);
#30=COLOUR_RGB('',1.60784E-1,4.5098E-1,7.21569E-1);
#31=COLOUR_RGB('',1.6E-1,4.6E-1,6.5E-1);
#32=COLOUR_RGB('',1.6E-1,1.E0,1.6E-1);
#33=COLOUR_RGB('',2.E-1,3.2E-2,0.E0);
#34=COLOUR_RGB('',2.11765E-1,4.11765E-1,1.4902E-1);
#35=COLOUR_RGB('',2.39216E-1,2.39216E-1,2.31373E-1);
#36=COLOUR_RGB('',2.39216E-1,2.70588E-1,1.80392E-1);
#37=COLOUR_RGB('',2.5098E-1,2.90196E-1,3.29412E-1);
#38=COLOUR_RGB('',2.90196E-1,4.31373E-1,2.E-1);
#39=COLOUR_RGB('',3.1E-1,3.1E-1,5.6E-1);
#40=COLOUR_RGB('',3.09804E-1,6.58824E-1,2.E-1);
#41=COLOUR_RGB('',3.2E-1,1.5E-1,0.E0);
#42=COLOUR_RGB('',3.60784E-1,3.1373E-2,1.68627E-1);
#43=COLOUR_RGB('',3.68627E-1,2.E-1,1.21569E-1);
#44=COLOUR_RGB('',3.88235E-1,2.39216E-1,6.11765E-1);
#45=COLOUR_RGB('',4.E-1,4.E-1,4.E-1);
#46=COLOUR_RGB('',4.11765E-1,5.8824E-2,7.8431E-2);
#47=COLOUR_RGB('',4.11765E-1,3.29412E-1,2.19608E-1);
#48=COLOUR_RGB('',4.2E-1,4.2E-1,1.E0);
#49=COLOUR_RGB('',4.4E-1,8.5E-1,1.E0);
#50=COLOUR_RGB('',4.58824E-1,4.5098E-1,3.09804E-1);
#51=COLOUR_RGB('',4.70588E-1,5.09804E-1,5.4902E-1);
#52=COLOUR_RGB('',4.78431E-1,4.90196E-1,4.58824E-1);
#53=COLOUR_RGB('',4.90196E-1,3.60784E-1,2.19608E-1);
#54=COLOUR_RGB('',4.9E-1,4.9E-1,0.E0);
#55=COLOUR_RGB('',4.9E-1,1.E0,0.E0);
#56=COLOUR_RGB('',5.E-1,0.E0,0.E0);
#57=COLOUR_RGB('',5.E-1,0.E0,2.3E-1);
#58=COLOUR_RGB('',5.E-1,5.E-1,5.E-1);
#59=COLOUR_RGB('',5.21569E-1,2.19608E-1,1.68627E-1);
#60=COLOUR_RGB('',5.3E-1,0.E0,0.E0);
#61=COLOUR_RGB('',5.29412E-1,5.80392E-1,6.5098E-1);
#62=COLOUR_RGB('',5.4E-1,0.E0,4.4E-1);
#63=COLOUR_RGB('',5.5E-1,3.E-1,0.E0);
#64=COLOUR_RGB('',5.6E-1,1.E-1,5.E-2);
#65=COLOUR_RGB('',5.60784E-1,5.80392E-1,6.19608E-1);
#66=COLOUR_RGB('',5.68627E-1,5.8824E-2,4.E-1);
#67=COLOUR_RGB('',5.8E-1,2.2E-1,1.E-2);
#68=COLOUR_RGB('',5.88235E-1,1.21569E-1,1.09804E-1);
#69=COLOUR_RGB('',6.E-1,6.E-1,6.E-1);
#70=COLOUR_RGB('',6.11765E-1,5.60784E-1,3.80392E-1);
#71=COLOUR_RGB('',6.11765E-1,6.11765E-1,6.5098E-1);
#72=COLOUR_RGB('',6.2E-1,0.E0,5.5E-1);
#73=COLOUR_RGB('',6.19608E-1,6.39216E-1,6.90196E-1);
#74=COLOUR_RGB('',6.4E-1,0.E0,2.5E-1);
#75=COLOUR_RGB('',6.4E-1,1.E-2,0.E0);
#76=COLOUR_RGB('',6.39216E-1,5.4902E-1,4.78431E-1);
#77=COLOUR_RGB('',6.5098E-1,6.70588E-1,7.09804E-1);
#78=COLOUR_RGB('',6.70588E-1,1.21569E-1,1.09804E-1);
#79=COLOUR_RGB('',6.78431E-1,4.78431E-1,3.09804E-1);
#80=COLOUR_RGB('',6.8E-1,7.5E-1,1.E0);
#81=COLOUR_RGB('',6.952E-1,7.426E-1,7.9E-1);
#82=COLOUR_RGB('',7.09804E-1,7.0588E-2,2.E-1);
#83=COLOUR_RGB('',7.1E-1,3.1E-1,0.E0);
#84=COLOUR_RGB('',7.2E-1,7.2E-1,7.2E-1);
#85=COLOUR_RGB('',7.29412E-1,7.41176E-1,7.29412E-1);
#86=COLOUR_RGB('',7.41176E-1,7.29412E-1,6.70588E-1);
#87=COLOUR_RGB('',7.4E-1,1.E0,2.6E-1);
#88=COLOUR_RGB('',7.5E-1,3.E-2,0.E0);
#89=COLOUR_RGB('',7.4902E-1,8.90196E-1,7.29412E-1);
#90=COLOUR_RGB('',7.6E-1,0.E0,4.7E-1);
#91=COLOUR_RGB('',7.80392E-1,9.0196E-2,7.0588E-2);
#92=COLOUR_RGB('',7.88235E-1,2.19608E-1,5.4902E-1);
#93=COLOUR_RGB('',8.1E-1,4.E-2,0.E0);
#94=COLOUR_RGB('',8.1E-1,6.1E-1,0.E0);
#95=COLOUR_RGB('',8.2E-1,4.E-2,6.6E-1);
#96=COLOUR_RGB('',8.31373E-1,8.5098E-1,8.58824E-1);
#97=COLOUR_RGB('',8.5098E-1,7.29412E-1,5.4902E-1);
#98=COLOUR_RGB('',8.5E-1,8.5E-1,8.5E-1);
#99=COLOUR_RGB('',8.78431E-1,3.68627E-1,1.21569E-1);
#100=COLOUR_RGB('',8.784E-1,9.49E-1,1.E0);
#101=COLOUR_RGB('',8.90196E-1,5.88235E-1,1.41176E-1);
#102=COLOUR_RGB('',9.E-1,1.E0,0.E0);
#103=COLOUR_RGB('',9.09804E-1,6.11765E-1,7.09804E-1);
#104=COLOUR_RGB('',9.37E-1,7.85E-1,0.E0);
#105=COLOUR_RGB('',9.41176E-1,9.29412E-1,9.01961E-1);
#106=COLOUR_RGB('',9.5E-1,2.2E-1,8.1E-1);
#107=COLOUR_RGB('',9.6E-1,3.7E-1,3.E-1);
#108=COLOUR_RGB('',9.6E-1,7.1E-1,3.75E-1);
#109=COLOUR_RGB('',9.80392E-1,1.E0,1.E0);
#110=COLOUR_RGB('',9.88235E-1,1.09804E-1,7.8431E-2);
#111=COLOUR_RGB('',9.88235E-1,7.21569E-1,1.29412E-1);
#112=COLOUR_RGB('',9.88235E-1,9.21569E-1,8.E-1);
#113=DRAUGHTING_PRE_DEFINED_COLOUR('red');
#114=COLOUR_RGB('',1.E0,0.E0,6.1E-1);
#115=COLOUR_RGB('',1.E0,4.E-2,0.E0);
#116=COLOUR_RGB('',1.E0,2.3E-1,0.E0);
#117=COLOUR_RGB('',1.E0,3.5E-1,5.2E-1);
#118=COLOUR_RGB('',1.E0,3.6E-1,0.E0);
#119=COLOUR_RGB('',1.E0,3.88235E-1,2.11765E-1);
#120=COLOUR_RGB('',1.E0,4.9E-1,3.7E-1);
#121=COLOUR_RGB('',1.E0,5.E-1,0.E0);
#122=COLOUR_RGB('',1.E0,5.6E-1,7.8E-1);
#123=COLOUR_RGB('',1.E0,6.4E-1,4.9E-1);
#124=COLOUR_RGB('',1.E0,6.7E-1,0.E0);
#125=COLOUR_RGB('',1.E0,7.6E-1,6.5E-1);
#126=COLOUR_RGB('',1.E0,8.39216E-1,3.01961E-1);
#127=COLOUR_RGB('',1.E0,8.6E-1,4.E-2);
#128=COLOUR_RGB('',1.E0,9.60784E-1,2.58824E-1);
#129=COLOUR_RGB('',1.E0,9.60784E-1,8.90196E-1);
#130=COLOUR_RGB('',1.E0,9.8E-1,7.2E-1);
#131=DRAUGHTING_PRE_DEFINED_COLOUR('yellow');
#132=COLOUR_RGB('',1.E0,1.E0,3.9216E-2);
#133=DRAUGHTING_PRE_DEFINED_COLOUR('white');
#138=CIRCLE('',#137,8.89E-1);
#143=CIRCLE('',#142,8.89E-1);
#148=CIRCLE('',#147,3.175E-1);
#157=CIRCLE('',#156,3.175E-1);
#210=CIRCLE('',#209,3.175E-1);
#219=CIRCLE('',#218,3.175E-1);
#228=CIRCLE('',#227,3.175E-1);
#237=CIRCLE('',#236,3.175E-1);
#254=CIRCLE('',#253,3.175E-1);
#263=CIRCLE('',#262,3.175E-1);
#280=CIRCLE('',#279,8.89E-1);
#285=CIRCLE('',#284,8.89E-1);
#290=CIRCLE('',#289,3.175E-1);
#299=CIRCLE('',#298,3.175E-1);
#308=CIRCLE('',#307,3.175E-1);
#325=CIRCLE('',#324,3.175E-1);
#334=CIRCLE('',#333,3.175E-1);
#343=CIRCLE('',#342,3.175E-1);
#352=CIRCLE('',#351,3.175E-1);
#405=CIRCLE('',#404,3.175E-1);
#687=EDGE_CURVE('',#604,#605,#148,.T.);
#689=EDGE_CURVE('',#604,#637,#152,.T.);
#691=EDGE_CURVE('',#636,#637,#157,.T.);
#693=EDGE_CURVE('',#636,#566,#161,.T.);
#695=EDGE_CURVE('',#566,#567,#165,.T.);
#697=EDGE_CURVE('',#567,#569,#169,.T.);
#699=EDGE_CURVE('',#569,#571,#173,.T.);
#701=EDGE_CURVE('',#571,#669,#177,.T.);
#703=EDGE_CURVE('',#668,#669,#181,.T.);
#705=EDGE_CURVE('',#668,#552,#185,.T.);
#707=EDGE_CURVE('',#552,#553,#189,.T.);
#709=EDGE_CURVE('',#553,#555,#193,.T.);
#711=EDGE_CURVE('',#555,#557,#197,.T.);
#713=EDGE_CURVE('',#557,#559,#201,.T.);
#715=EDGE_CURVE('',#559,#653,#205,.T.);
#717=EDGE_CURVE('',#652,#653,#210,.T.);
#719=EDGE_CURVE('',#652,#621,#214,.T.);
#721=EDGE_CURVE('',#620,#621,#219,.T.);
#723=EDGE_CURVE('',#620,#629,#223,.T.);
#725=EDGE_CURVE('',#628,#629,#228,.T.);
#727=EDGE_CURVE('',#628,#661,#232,.T.);
#729=EDGE_CURVE('',#660,#661,#237,.T.);
#731=EDGE_CURVE('',#660,#562,#241,.T.);
#733=EDGE_CURVE('',#562,#563,#245,.T.);
#735=EDGE_CURVE('',#563,#645,#249,.T.);
#737=EDGE_CURVE('',#644,#645,#254,.T.);
#739=EDGE_CURVE('',#644,#613,#258,.T.);
#741=EDGE_CURVE('',#612,#613,#263,.T.);
#743=EDGE_CURVE('',#612,#605,#267,.T.);
#747=EDGE_CURVE('',#596,#597,#138,.T.);
#749=EDGE_CURVE('',#597,#596,#143,.T.);
#753=ADVANCED_FACE('',(#746,#752),#686,.F.);
#760=EDGE_CURVE('',#596,#600,#271,.T.);
#762=EDGE_CURVE('',#600,#601,#280,.T.);
#764=EDGE_CURVE('',#597,#601,#275,.T.);
#768=ADVANCED_FACE('',(#767),#758,.F.);
#776=EDGE_CURVE('',#601,#600,#285,.T.);
#781=ADVANCED_FACE('',(#780),#773,.F.);
#787=EDGE_CURVE('',#607,#609,#290,.T.);
#789=EDGE_CURVE('',#617,#607,#294,.T.);
#791=EDGE_CURVE('',#615,#617,#299,.T.);
#793=EDGE_CURVE('',#649,#615,#303,.T.);
#795=EDGE_CURVE('',#647,#649,#308,.T.);
#797=EDGE_CURVE('',#585,#647,#312,.T.);
#799=EDGE_CURVE('',#584,#585,#316,.T.);
#801=EDGE_CURVE('',#665,#584,#320,.T.);
#803=EDGE_CURVE('',#663,#665,#325,.T.);
#805=EDGE_CURVE('',#633,#663,#329,.T.);
#807=EDGE_CURVE('',#631,#633,#334,.T.);
#809=EDGE_CURVE('',#625,#631,#338,.T.);
#811=EDGE_CURVE('',#623,#625,#343,.T.);
#813=EDGE_CURVE('',#657,#623,#347,.T.);
#815=EDGE_CURVE('',#655,#657,#352,.T.);
#817=EDGE_CURVE('',#581,#655,#356,.T.);
#819=EDGE_CURVE('',#579,#581,#360,.T.);
#821=EDGE_CURVE('',#577,#579,#364,.T.);
#823=EDGE_CURVE('',#575,#577,#368,.T.);
#825=EDGE_CURVE('',#574,#575,#372,.T.);
#827=EDGE_CURVE('',#672,#574,#376,.T.);
#829=EDGE_CURVE('',#672,#673,#380,.T.);
#831=EDGE_CURVE('',#593,#673,#384,.T.);
#833=EDGE_CURVE('',#591,#593,#388,.T.);
#835=EDGE_CURVE('',#589,#591,#392,.T.);
#837=EDGE_CURVE('',#588,#589,#396,.T.);
#839=EDGE_CURVE('',#641,#588,#400,.T.);
#841=EDGE_CURVE('',#639,#641,#405,.T.);
#843=EDGE_CURVE('',#609,#639,#409,.T.);
#851=ADVANCED_FACE('',(#846,#850),#786,.T.);
#858=EDGE_CURVE('',#607,#605,#413,.T.);
#861=EDGE_CURVE('',#609,#604,#545,.T.);
#865=ADVANCED_FACE('',(#864),#856,.T.);
#873=EDGE_CURVE('',#617,#612,#417,.T.);
#878=ADVANCED_FACE('',(#877),#870,.T.);
#885=EDGE_CURVE('',#615,#613,#421,.T.);
#891=ADVANCED_FACE('',(#890),#883,.T.);
#899=EDGE_CURVE('',#649,#644,#425,.T.);
#904=ADVANCED_FACE('',(#903),#896,.T.);
#911=EDGE_CURVE('',#647,#645,#429,.T.);
#917=ADVANCED_FACE('',(#916),#909,.T.);
#925=EDGE_CURVE('',#563,#585,#433,.T.);
#930=ADVANCED_FACE('',(#929),#922,.T.);
#937=EDGE_CURVE('',#562,#584,#437,.T.);
#943=ADVANCED_FACE('',(#942),#935,.T.);
#949=EDGE_CURVE('',#665,#660,#441,.T.);
#956=ADVANCED_FACE('',(#955),#948,.T.);
#963=EDGE_CURVE('',#663,#661,#449,.T.);
#969=ADVANCED_FACE('',(#968),#961,.T.);
#975=EDGE_CURVE('',#633,#628,#445,.T.);
#982=ADVANCED_FACE('',(#981),#974,.T.);
#989=EDGE_CURVE('',#631,#629,#457,.T.);
#995=ADVANCED_FACE('',(#994),#987,.T.);
#1001=EDGE_CURVE('',#625,#620,#453,.T.);
#1008=ADVANCED_FACE('',(#1007),#1000,.T.);
#1015=EDGE_CURVE('',#623,#621,#461,.T.);
#1021=ADVANCED_FACE('',(#1020),#1013,.T.);
#1029=EDGE_CURVE('',#657,#652,#465,.T.);
#1034=ADVANCED_FACE('',(#1033),#1026,.T.);
#1041=EDGE_CURVE('',#655,#653,#469,.T.);
#1047=ADVANCED_FACE('',(#1046),#1039,.T.);
#1055=EDGE_CURVE('',#559,#581,#473,.T.);
#1060=ADVANCED_FACE('',(#1059),#1052,.T.);
#1067=EDGE_CURVE('',#557,#579,#477,.T.);
#1073=ADVANCED_FACE('',(#1072),#1065,.T.);
#1080=EDGE_CURVE('',#555,#577,#481,.T.);
#1086=ADVANCED_FACE('',(#1085),#1078,.T.);
#1093=EDGE_CURVE('',#553,#575,#485,.T.);
#1099=ADVANCED_FACE('',(#1098),#1091,.T.);
#1106=EDGE_CURVE('',#552,#574,#489,.T.);
#1112=ADVANCED_FACE('',(#1111),#1104,.T.);
#1118=EDGE_CURVE('',#677,#672,#493,.T.);
#1123=EDGE_CURVE('',#681,#668,#497,.T.);
#1125=EDGE_CURVE('',#681,#677,#501,.T.);
#1129=ADVANCED_FACE('',(#1128),#1117,.T.);
#1136=EDGE_CURVE('',#676,#677,#505,.T.);
#1138=EDGE_CURVE('',#676,#673,#517,.T.);
#1143=ADVANCED_FACE('',(#1142),#1134,.F.);
#1151=EDGE_CURVE('',#680,#681,#509,.T.);
#1153=EDGE_CURVE('',#680,#676,#513,.T.);
#1157=ADVANCED_FACE('',(#1156),#1148,.T.);
#1163=EDGE_CURVE('',#680,#669,#521,.T.);
#1170=ADVANCED_FACE('',(#1169),#1162,.F.);
#1180=EDGE_CURVE('',#571,#593,#525,.T.);
#1185=ADVANCED_FACE('',(#1184),#1175,.T.);
#1192=EDGE_CURVE('',#569,#591,#529,.T.);
#1198=ADVANCED_FACE('',(#1197),#1190,.T.);
#1205=EDGE_CURVE('',#567,#589,#533,.T.);
#1211=ADVANCED_FACE('',(#1210),#1203,.T.);
#1218=EDGE_CURVE('',#566,#588,#537,.T.);
#1224=ADVANCED_FACE('',(#1223),#1216,.T.);
#1230=EDGE_CURVE('',#641,#636,#541,.T.);
#1237=ADVANCED_FACE('',(#1236),#1229,.T.);
#1244=EDGE_CURVE('',#639,#637,#549,.T.);
#1250=ADVANCED_FACE('',(#1249),#1242,.T.);
#1262=ADVANCED_FACE('',(#1261),#1255,.T.);
#1265=(LENGTH_UNIT()NAMED_UNIT(*)SI_UNIT(.MILLI.,.METRE.));
#1266=(NAMED_UNIT(*)PLANE_ANGLE_UNIT()SI_UNIT($,.RADIAN.));
#1269=(NAMED_UNIT(*)SI_UNIT($,.STERADIAN.)SOLID_ANGLE_UNIT());
#1271=(GEOMETRIC_REPRESENTATION_CONTEXT(3)GLOBAL_UNCERTAINTY_ASSIGNED_CONTEXT((
#1270))GLOBAL_UNIT_ASSIGNED_CONTEXT((#1265,#1268,#1269))REPRESENTATION_CONTEXT(
'ID1','3'));
#1272=ADVANCED_BREP_SHAPE_REPRESENTATION('',(#1264),#1271);
#1279=PRODUCT_DEFINITION('part definition','',#1278,#1275);
#1280=PRODUCT_DEFINITION_SHAPE('','SHAPE FOR C-63952-1.',#1279);
#1281=SHAPE_ASPECT('','solid data associated with C-63952-1',#1280,.F.);
#1282=PROPERTY_DEFINITION('',
'shape for solid data with which properties are associated',#1281);
#1283=SHAPE_REPRESENTATION('',(#1264),#1271);
#1284=SHAPE_DEFINITION_REPRESENTATION(#1282,#1283);
#1285=(LENGTH_UNIT()NAMED_UNIT(*)SI_UNIT(.MILLI.,.METRE.));
#1289=PROPERTY_DEFINITION('geometric validation property','area of C-63952-1',
#1281);
#1290=REPRESENTATION('surface area',(#1288),#1271);
#1291=PROPERTY_DEFINITION_REPRESENTATION(#1289,#1290);
#1292=(LENGTH_UNIT()NAMED_UNIT(*)SI_UNIT(.MILLI.,.METRE.));
#1296=PROPERTY_DEFINITION('geometric validation property','volume of C-63952-1',
#1281);
#1297=REPRESENTATION('volume',(#1295),#1271);
#1298=PROPERTY_DEFINITION_REPRESENTATION(#1296,#1297);
#1300=PROPERTY_DEFINITION('geometric validation property',
'centroid of C-63952-1',#1281);
#1301=REPRESENTATION('centroid',(#1299),#1271);
#1302=PROPERTY_DEFINITION_REPRESENTATION(#1300,#1301);
#1303=(LENGTH_UNIT()NAMED_UNIT(*)SI_UNIT(.MILLI.,.METRE.));
#1307=PROPERTY_DEFINITION('geometric validation property','area of C-63952-1',
#1280);
#1308=REPRESENTATION('surface area',(#1306),#1271);
#1309=PROPERTY_DEFINITION_REPRESENTATION(#1307,#1308);
#1310=(LENGTH_UNIT()NAMED_UNIT(*)SI_UNIT(.MILLI.,.METRE.));
#1314=PROPERTY_DEFINITION('geometric validation property','volume of C-63952-1',
#1280);
#1315=REPRESENTATION('volume',(#1313),#1271);
#1316=PROPERTY_DEFINITION_REPRESENTATION(#1314,#1315);
#1318=PROPERTY_DEFINITION('geometric validation property',
'centroid of C-63952-1',#1280);
#1319=REPRESENTATION('centroid',(#1317),#1271);
#1320=PROPERTY_DEFINITION_REPRESENTATION(#1318,#1319);
#1321=SHAPE_DEFINITION_REPRESENTATION(#1280,#1272);
ENDSEC;
END-ISO-10303-21;
